<svg width="12" height="9" viewBox="0 0 12 9" fill="none" xmlns="http://www.w3.org/2000/svg">
<g id="&#240;&#159;&#166;&#134; icon &#34;arrow right 1&#34;">
<g id="Group">
<path id="Vector" d="M7.57699 8.84756C7.45373 8.84756 7.33046 8.80215 7.23315 8.70483C7.04501 8.51669 7.04501 8.20528 7.23315 8.01714L10.8273 4.42296L7.23315 0.828801C7.04501 0.640659 7.04501 0.32925 7.23315 0.141107C7.42129 -0.0470357 7.7327 -0.0470357 7.92084 0.141107L11.8589 4.07912C12.047 4.26726 12.047 4.57867 11.8589 4.76681L7.92084 8.70483C7.82353 8.80215 7.70026 8.84756 7.57699 8.84756Z" fill="white"/>
<path id="Vector_2" d="M11.4053 4.90948H0.486576C0.220581 4.90948 0 4.6889 0 4.4229C0 4.15691 0.220581 3.93633 0.486576 3.93633H11.4053C11.6713 3.93633 11.8919 4.15691 11.8919 4.4229C11.8919 4.6889 11.6713 4.90948 11.4053 4.90948Z" fill="white"/>
</g>
</g>
</svg>
