<svg width="22" height="21" viewBox="0 0 22 21" fill="none" xmlns="http://www.w3.org/2000/svg">
<circle cx="11.05" cy="10.5" r="10" fill="#FFABAB" stroke="#FF3D00"/>
<mask id="mask0_49_109" style="mask-type:alpha" maskUnits="userSpaceOnUse" x="2" y="2" width="17" height="17">
<rect x="2.58221" y="2.70969" width="16.2581" height="16.2581" fill="#D9D9D9"/>
</mask>
<g mask="url(#mask0_49_109)">
<path d="M4.88546 14.9032L3.93707 13.9548L7.5274 10.3645C7.92256 9.96936 8.4024 9.77178 8.96691 9.77178C9.53143 9.77178 10.0113 9.96936 10.4064 10.3645L11.1855 11.1436C11.3209 11.279 11.4818 11.3468 11.6681 11.3468C11.8544 11.3468 12.0153 11.279 12.1508 11.1436L15.1653 8.12904H13.4209V6.7742H17.4855V10.8387H16.1306V9.09436L13.0992 12.1089C12.704 12.504 12.2242 12.7016 11.6597 12.7016C11.0951 12.7016 10.6153 12.504 10.2201 12.1089L9.42417 11.3129C9.29998 11.1887 9.14191 11.1266 8.94998 11.1266C8.75804 11.1266 8.59998 11.1887 8.47578 11.3129L4.88546 14.9032Z" fill="#1C1B1F"/>
</g>
</svg>
