<svg width="36" height="36" viewBox="0 0 36 36" fill="none" xmlns="http://www.w3.org/2000/svg">
<mask id="mask0_25_680" style="mask-type:alpha" maskUnits="userSpaceOnUse" x="0" y="0" width="36" height="36">
<rect width="36" height="36" fill="#D9D9D9"/>
</mask>
<g mask="url(#mask0_25_680)">
<path d="M12 25.5H24V22.5H12V25.5ZM7.5 21H10.5V18H7.5V21ZM12 21H15V18H12V21ZM16.5 21H19.5V18H16.5V21ZM21 21H24V18H21V21ZM25.5 21H28.5V18H25.5V21ZM6 30C5.175 30 4.46875 29.7062 3.88125 29.1187C3.29375 28.5312 3 27.825 3 27V9C3 8.175 3.29375 7.46875 3.88125 6.88125C4.46875 6.29375 5.175 6 6 6H30C30.825 6 31.5313 6.29375 32.1188 6.88125C32.7063 7.46875 33 8.175 33 9V27C33 27.825 32.7063 28.5312 32.1188 29.1187C31.5313 29.7062 30.825 30 30 30H6ZM6 13.5H30V9H6V13.5ZM6 27H30V16.5H6V27Z" fill="#ffff"/>
</g>
</svg>
